HIERARCHY
ROOT Hips
{
    OFFSET   0.000000   0.000000   0.000000
    CHANNELS 6 Xposition Yposition Zposition Zrotation Xrotation Yrotation
    JOINT Chest
    {
        OFFSET   0.000000   8.007230   0.000000
        CHANNELS 3 Zrotation Xrotation Yrotation
        JOINT Chest2
        {
            OFFSET   0.000000  22.077100   0.000000
            CHANNELS 3 Zrotation Xrotation Yrotation
            JOINT Neck
            {
                OFFSET   0.000000  23.255100   0.000000
                CHANNELS 3 Zrotation Xrotation Yrotation
                JOINT Head
                {
                    OFFSET   0.000000  14.370100   1.956600
                    CHANNELS 3 Zrotation Xrotation Yrotation
                    End Site
                    {
                        OFFSET   0.000000  19.566000   0.000000
                    }
                }
            }
            JOINT LeftCollar
            {
                OFFSET   3.911900  19.017000  -0.467063
                CHANNELS 3 Zrotation Xrotation Yrotation
                JOINT LeftShoulder
                {
                    OFFSET  10.383700   0.000000   0.000000
                    CHANNELS 3 Zrotation Xrotation Yrotation
                    JOINT LeftElbow
                    {
                        OFFSET  26.662100   0.001193   0.000980
                        CHANNELS 3 Zrotation Xrotation Yrotation
                        JOINT LeftWrist
                        {
                            OFFSET  28.869000  -0.000059  -0.000082
                            CHANNELS 3 Zrotation Xrotation Yrotation
                            JOINT LeftFinger0
                            {
                                OFFSET   2.044650  -2.323450   3.252850
                                CHANNELS 3 Zrotation Xrotation Yrotation
                                JOINT LeftFinger01
                                {
                                    OFFSET   3.088130   0.000000   0.000000
                                    CHANNELS 3 Zrotation Xrotation Yrotation
                                    JOINT LeftFinger02
                                    {
                                        OFFSET   2.639460   0.000000   0.000000
                                        CHANNELS 3 Zrotation Xrotation Yrotation
                                        End Site
                                        {
                                            OFFSET   2.582190   0.000000   0.000000
                                        }
                                    }
                                }
                            }
                            JOINT LeftFinger1
                            {
                                OFFSET   8.364480   0.000000   3.252850
                                CHANNELS 3 Zrotation Xrotation Yrotation
                                JOINT LeftFinger11
                                {
                                    OFFSET   4.646930   0.000000   0.000000
                                    CHANNELS 3 Zrotation Xrotation Yrotation
                                    JOINT LeftFinger12
                                    {
                                        OFFSET   2.323470   0.000000   0.000000
                                        CHANNELS 3 Zrotation Xrotation Yrotation
                                        End Site
                                        {
                                            OFFSET   2.273050   0.000000   0.000000
                                        }
                                    }
                                }
                            }
                            JOINT LeftFinger2
                            {
                                OFFSET   8.364490   0.000016   1.078090
                                CHANNELS 3 Zrotation Xrotation Yrotation
                                JOINT LeftFinger21
                                {
                                    OFFSET   5.111610   0.000000   0.000000
                                    CHANNELS 3 Zrotation Xrotation Yrotation
                                    JOINT LeftFinger22
                                    {
                                        OFFSET   2.788150   0.000016   0.000000
                                        CHANNELS 3 Zrotation Xrotation Yrotation
                                        End Site
                                        {
                                            OFFSET   2.727660   0.000000   0.000000
                                        }
                                    }
                                }
                            }
                            JOINT LeftFinger3
                            {
                                OFFSET   7.899780   0.000015  -1.078090
                                CHANNELS 3 Zrotation Xrotation Yrotation
                                JOINT LeftFinger31
                                {
                                    OFFSET   4.646930   0.000000   0.000000
                                    CHANNELS 3 Zrotation Xrotation Yrotation
                                    JOINT LeftFinger32
                                    {
                                        OFFSET   2.323470   0.000000   0.000000
                                        CHANNELS 3 Zrotation Xrotation Yrotation
                                        End Site
                                        {
                                            OFFSET   2.273050   0.000000   0.000000
                                        }
                                    }
                                }
                            }
                            JOINT LeftFinger4
                            {
                                OFFSET   7.435090   0.000000  -3.252850
                                CHANNELS 3 Zrotation Xrotation Yrotation
                                JOINT LeftFinger41
                                {
                                    OFFSET   3.717550   0.000000   0.000000
                                    CHANNELS 3 Zrotation Xrotation Yrotation
                                    JOINT LeftFinger42
                                    {
                                        OFFSET   1.858770   0.000000   0.000000
                                        CHANNELS 3 Zrotation Xrotation Yrotation
                                        End Site
                                        {
                                            OFFSET   1.818440   0.000000   0.000000
                                        }
                                    }
                                }
                            }
                        }
                    }
                }
            }
            JOINT RightCollar
            {
                OFFSET  -3.911910  19.017000  -0.467062
                CHANNELS 3 Zrotation Xrotation Yrotation
                JOINT RightShoulder
                {
                    OFFSET -10.383700   0.000014   0.000000
                    CHANNELS 3 Zrotation Xrotation Yrotation
                    JOINT RightElbow
                    {
                        OFFSET -26.662100   0.001225   0.001091
                        CHANNELS 3 Zrotation Xrotation Yrotation
                        JOINT RightWrist
                        {
                            OFFSET -28.869000  -0.000020  -0.000085
                            CHANNELS 3 Zrotation Xrotation Yrotation
                            JOINT RightFinger0
                            {
                                OFFSET  -2.044650  -2.323490   3.252850
                                CHANNELS 3 Zrotation Xrotation Yrotation
                                JOINT RightFinger01
                                {
                                    OFFSET  -3.088130   0.000000   0.000000
                                    CHANNELS 3 Zrotation Xrotation Yrotation
                                    JOINT RightFinger02
                                    {
                                        OFFSET  -2.639460   0.000000   0.000000
                                        CHANNELS 3 Zrotation Xrotation Yrotation
                                        End Site
                                        {
                                            OFFSET  -2.582190   0.000000   0.000000
                                        }
                                    }
                                }
                            }
                            JOINT RightFinger1
                            {
                                OFFSET  -8.364480   0.000000   3.252850
                                CHANNELS 3 Zrotation Xrotation Yrotation
                                JOINT RightFinger11
                                {
                                    OFFSET  -4.646930   0.000000   0.000000
                                    CHANNELS 3 Zrotation Xrotation Yrotation
                                    JOINT RightFinger12
                                    {
                                        OFFSET  -2.323470   0.000000   0.000000
                                        CHANNELS 3 Zrotation Xrotation Yrotation
                                        End Site
                                        {
                                            OFFSET  -2.273050   0.000000   0.000000
                                        }
                                    }
                                }
                            }
                            JOINT RightFinger2
                            {
                                OFFSET  -8.364480   0.000000   1.078090
                                CHANNELS 3 Zrotation Xrotation Yrotation
                                JOINT RightFinger21
                                {
                                    OFFSET  -5.111620   0.000000   0.000000
                                    CHANNELS 3 Zrotation Xrotation Yrotation
                                    JOINT RightFinger22
                                    {
                                        OFFSET  -2.788160   0.000000   0.000000
                                        CHANNELS 3 Zrotation Xrotation Yrotation
                                        End Site
                                        {
                                            OFFSET  -2.727660   0.000000   0.000000
                                        }
                                    }
                                }
                            }
                            JOINT RightFinger3
                            {
                                OFFSET  -7.899780   0.000000  -1.078090
                                CHANNELS 3 Zrotation Xrotation Yrotation
                                JOINT RightFinger31
                                {
                                    OFFSET  -4.646930   0.000000   0.000000
                                    CHANNELS 3 Zrotation Xrotation Yrotation
                                    JOINT RightFinger32
                                    {
                                        OFFSET  -2.323470   0.000000   0.000000
                                        CHANNELS 3 Zrotation Xrotation Yrotation
                                        End Site
                                        {
                                            OFFSET  -2.273050   0.000000   0.000000
                                        }
                                    }
                                }
                            }
                            JOINT RightFinger4
                            {
                                OFFSET  -7.435090   0.000000  -3.252850
                                CHANNELS 3 Zrotation Xrotation Yrotation
                                JOINT RightFinger41
                                {
                                    OFFSET  -3.717550   0.000000   0.000000
                                    CHANNELS 3 Zrotation Xrotation Yrotation
                                    JOINT RightFinger42
                                    {
                                        OFFSET  -1.858760   0.000000   0.000000
                                        CHANNELS 3 Zrotation Xrotation Yrotation
                                        End Site
                                        {
                                            OFFSET  -1.818440   0.000000   0.000000
                                        }
                                    }
                                }
                            }
                        }
                    }
                }
            }
        }
    }
    JOINT LeftHip
    {
        OFFSET   9.783030   0.000000   0.000000
        CHANNELS 3 Zrotation Xrotation Yrotation
        JOINT LeftKnee
        {
            OFFSET   0.000063 -41.789100   0.000608
            CHANNELS 3 Zrotation Xrotation Yrotation
            JOINT LeftAnkle
            {
                OFFSET   0.000048 -41.133200  -0.000184
                CHANNELS 3 Zrotation Xrotation Yrotation
                JOINT LeftToe
                {
                    OFFSET   0.000000  -6.358960  14.674500
                    CHANNELS 3 Zrotation Xrotation Yrotation
                    End Site
                    {
                        OFFSET   0.000000   0.000000   3.913200
                    }
                }
            }
        }
    }
    JOINT RightHip
    {
        OFFSET  -9.783030   0.000000   0.000000
        CHANNELS 3 Zrotation Xrotation Yrotation
        JOINT RightKnee
        {
            OFFSET   0.000071 -41.789100   0.001239
            CHANNELS 3 Zrotation Xrotation Yrotation
            JOINT RightAnkle
            {
                OFFSET   0.000037 -41.133200  -0.000166
                CHANNELS 3 Zrotation Xrotation Yrotation
                JOINT RightToe
                {
                    OFFSET   0.000000  -6.358960  14.674500
                    CHANNELS 3 Zrotation Xrotation Yrotation
                    End Site
                    {
                        OFFSET   0.000000   0.000000   3.913200
                    }
                }
            }
        }
    }
}
MOTION
Frames: 4
Frame Time:   0.016667
 -1.611840  89.547000  -3.127910  -3.489730 -10.419300  -1.570290   0.443280   6.507250   0.281282   0.862610  13.016500   0.516548   1.889550   0.961489  -0.033559   3.106920   1.943170  -0.504351  -3.717310  -0.695738  -2.055030 -72.293700  16.351600   2.325110  -2.129280  -1.480700 -23.227700  15.668800 -17.756200   9.507670  37.653200  28.241000 -53.193000 -31.798900   0.001665   0.001099 -10.899400  -0.003541   0.001942 -28.395300   5.885800 -10.741000 -23.685600  -0.001975  -0.004326 -16.579900   0.001151  -0.005791 -28.307300   1.743650  -3.233760 -34.685800  -0.005333  -0.004634 -23.101500  -0.003713  -0.007922 -27.526700   1.699040  -3.257400 -29.530600  -0.002852  -0.006380 -19.667400   0.002077  -0.004652 -27.705700   1.598280  -3.042190 -41.622100  -0.002566  -0.000251 -27.720300  -0.000178  -0.004764   8.883520  -0.808638   6.574830  70.739700  15.714700 -10.171700   0.169231  -8.228870  19.956800  -8.189140  -6.997760   2.089920 -41.324700  35.959600  69.189700  29.908800   0.012701  -0.007279   9.954390   0.006522  -0.002746  26.052400   4.451800   9.020530  21.603400  -0.000000  -0.008144  15.122400   0.003879  -0.002185  27.778200   3.610190   6.816940  31.952800   0.010189  -0.011663  21.280600   0.002057  -0.007060  24.748400   0.950494   2.062230  24.748500   0.010125  -0.004268  16.493700   0.004023  -0.009190  30.368100   0.904817   1.543740  45.570400   0.003686  -0.004467  30.349900  -0.000871  -0.003393   3.131360  12.879300   0.243158   1.306300  -0.000132  -0.418473  -1.671440  -3.674850   2.502340   0.000000   0.000000   0.000000   4.807230  10.810900  -4.423380  -1.009080   3.743050  -7.316740  -0.684082  -5.051540   0.006082   0.000000   0.000000   0.000000
 -1.617760  89.547100  -3.098130  -3.496940 -10.434100  -1.602710   0.448741   6.507230   0.285935   0.873153  13.016400   0.524914   1.902680   0.998285  -0.034202   3.128660   2.017580  -0.531262  -3.737000  -0.714592  -2.030040 -72.332400  16.448700   2.304860  -2.126340  -1.477980 -23.190500  15.696200 -17.746600   9.515170  37.650300  28.244100 -53.191400 -31.814600   0.001662   0.001096 -10.907200  -0.003543   0.001928 -28.407000   5.875740 -10.716800 -23.693200  -0.001975  -0.004327 -16.585200   0.001151  -0.005794 -28.308500   1.732270  -3.212670 -34.690000  -0.005333  -0.004629 -23.104000  -0.003713  -0.007915 -27.527800   1.687940  -3.236150 -29.537600  -0.002847  -0.006376 -19.672000   0.002075  -0.004650 -27.710600   1.598280  -3.040850 -41.629500  -0.002567  -0.000236 -27.725200  -0.000175  -0.004761   8.944610  -0.826041   6.637120  70.701100  15.735400 -10.211800   0.162586  -8.249420  19.950700  -8.177590  -6.964080   2.078750 -41.328600  35.959000  69.190000  29.902100   0.012697  -0.007238   9.951030   0.006521  -0.002744  26.051700   4.453830   9.026390  21.603800   0.000000  -0.008140  15.122700   0.003884  -0.002184  27.777700   3.612860   6.822050  31.952100   0.010194  -0.011666  21.280100   0.002056  -0.007059  24.747700   0.960017   2.082690  24.751500   0.010125  -0.004266  16.493700   0.004022  -0.009186  30.374800   0.912192   1.555910  45.580700   0.003686  -0.004459  30.356800  -0.000872  -0.003389   3.138510  12.910500   0.245855   1.307420   0.014606  -0.397556  -1.676100  -3.706730   2.510900   0.000000   0.000000   0.000000   4.797830  10.882500  -4.427120  -0.985302   3.672490  -7.321730  -0.691182  -5.033010   0.048829   0.000000   0.000000   0.000000
 -1.628370  89.547300  -3.048520  -3.512060 -10.458100  -1.657580   0.461097   6.507130   0.290589   0.897506  13.016400   0.533279   1.922960   1.062730  -0.035705   3.162290   2.147780  -0.584510  -3.796340  -0.771569  -2.005060 -72.394100  16.641400   2.285730  -2.118360  -1.475780 -23.105800  15.731000 -17.720100   9.528210  37.641700  28.248200 -53.190300 -31.830300   0.001650   0.001087 -10.915100  -0.003546   0.001900 -28.424100   5.865680 -10.692700 -23.705600  -0.001979  -0.004332 -16.593900   0.001152  -0.005800 -28.309900   1.718740  -3.187250 -34.699000  -0.005329  -0.004616 -23.109500  -0.003711  -0.007896 -27.529100   1.674910  -3.210480 -29.551200  -0.002836  -0.006364 -19.681100   0.002073  -0.004644 -27.718400   1.598280  -3.038650 -41.641200  -0.002570  -0.000197 -27.733000  -0.000172  -0.004755   9.037210  -0.851992   6.751670  70.638800  15.768700 -10.278500   0.149996  -8.279130  19.938900  -8.158680  -6.930390   2.067590 -41.338100  35.955300  69.192500  29.884400   0.012693  -0.007197   9.942180   0.006519  -0.002740  26.049900   4.459470   9.040120  21.604100   0.000000  -0.008128  15.122900   0.003889  -0.002180  27.776600   3.617960   6.831820  31.949900   0.010201  -0.011674  21.278700   0.002056  -0.007057  24.747000   0.969540   2.103150  24.756600   0.010126  -0.004263  16.493700   0.004022  -0.009177  30.386500   0.922546   1.572830  45.598600   0.003684  -0.004439  30.368700  -0.000878  -0.003380   3.155820  12.962700   0.255913   1.308580   0.039506  -0.375280  -1.685090  -3.760670   2.525830  -0.000000   0.000000   0.000000   4.784480  11.004000  -4.447740  -0.944021   3.548400  -7.326300  -0.706078  -4.998350   0.127563  -0.000000   0.000000   0.000000
 -1.637960  89.547600  -3.008980  -3.531130 -10.476300  -1.704370   0.478201   6.503120   0.290074   0.931999  13.008400   0.531707   1.936010   1.122680  -0.037988   3.183950   2.268500  -0.648526  -3.901880  -0.873109  -2.033710 -72.436300  16.868000   2.299640  -2.112210  -1.584490 -22.982400  15.735600 -17.675400   9.541050  37.636700  28.239100 -53.208600 -31.829200   0.001625   0.001071 -10.914600  -0.003547   0.001877 -28.434200   5.867010 -10.693900 -23.714400  -0.001986  -0.004340 -16.600000   0.001146  -0.005811 -28.310200   1.716230  -3.182210 -34.708500  -0.005320  -0.004594 -23.115800  -0.003708  -0.007867 -27.529500   1.672650  -3.205320 -29.566000  -0.002817  -0.006349 -19.691000   0.002071  -0.004632 -27.723100   1.597140  -3.037360 -41.648200  -0.002576  -0.000138 -27.737600  -0.000170  -0.004745   9.093460  -0.866314   6.863270  70.593100  15.798700 -10.337300   0.137704  -8.291160  19.927000  -8.148880  -6.941410   2.068040 -41.332200  35.933600  69.191800  29.865200   0.012694  -0.007211   9.932580   0.006515  -0.002733  26.048100   4.463930   9.049500  21.603200   0.000000  -0.008105  15.122300   0.003889  -0.002170  27.775900   3.620610   6.836940  31.948100   0.010202  -0.011689  21.277500   0.002054  -0.007054  24.747400   0.968301   2.099980  24.762200   0.010126  -0.004259  16.493800   0.004020  -0.009161  30.399800   0.924796   1.576330  45.618600   0.003677  -0.004408  30.382000  -0.000890  -0.003370   3.179980  13.003100   0.276241   1.307380   0.065422  -0.373695  -1.694640  -3.808480   2.541670   0.000000   0.000000   0.000000   4.778020  11.105700  -4.493460  -0.906370   3.436400  -7.314000  -0.724704  -4.962480   0.207652   0.000000   0.000000   0.000000
